<?xml version="1.0" standalone="no"?>
<!DOCTYPE svg PUBLIC "-//W3C//DTD SVG 20010904//EN"
 "http://www.w3.org/TR/2001/REC-SVG-20010904/DTD/svg10.dtd">
<svg version="1.0" xmlns="http://www.w3.org/2000/svg"
 width="96.000000pt" height="96.000000pt" viewBox="0 0 96.000000 96.000000"
 preserveAspectRatio="xMidYMid meet">
<metadata>
Created by potrace 1.14, written by Peter Selinger 2001-2017
</metadata>
<g transform="translate(0.000000,96.000000) scale(0.100000,-0.100000)"
fill="#000000" stroke="none">
<path d="M515 851 c-3 -5 -7 -28 -9 -51 -3 -24 -13 -51 -25 -64 -12 -12 -21
-28 -21 -34 0 -7 -4 -12 -9 -12 -4 0 -6 -12 -3 -26 4 -21 1 -25 -14 -22 -15 2
-20 15 -25 63 -7 71 -12 84 -45 108 -35 26 -39 17 -16 -33 16 -35 17 -48 8
-71 -8 -21 -7 -37 1 -60 25 -64 -13 -60 -51 5 -20 35 -35 47 -80 63 -74 27
-73 16 7 -49 16 -14 28 -34 29 -51 2 -19 12 -34 30 -45 16 -9 28 -20 28 -24 0
-19 -26 -17 -70 6 -28 15 -60 26 -73 26 -82 -3 -95 -5 -85 -17 9 -11 69 -28
84 -23 3 1 18 -10 33 -24 16 -15 45 -31 65 -37 31 -9 35 -13 25 -25 -16 -19
-56 -18 -68 4 -6 10 -11 12 -11 4 0 -7 -4 -10 -10 -7 -5 3 -10 1 -10 -4 0 -6
-6 -11 -13 -11 -7 0 -26 -13 -42 -30 -16 -16 -35 -30 -42 -30 -8 0 -11 -5 -8
-10 4 -6 11 -8 16 -5 5 4 9 0 9 -7 0 -9 3 -9 8 -2 15 23 50 32 130 31 92 -1
99 -9 36 -44 -59 -34 -74 -46 -74 -63 0 -8 -7 -28 -15 -44 -20 -38 -19 -40 7
-22 12 9 30 16 40 16 12 0 17 7 15 22 -2 17 5 24 35 32 20 6 47 21 60 34 32
29 40 28 36 -5 -2 -17 -8 -27 -16 -25 -8 1 -11 -2 -7 -8 4 -6 2 -16 -4 -23 -5
-7 -12 -25 -15 -40 -2 -15 -8 -32 -12 -38 -4 -8 -3 -9 4 -5 12 7 15 -6 13 -54
l-1 -25 14 25 c9 14 15 37 16 52 0 18 14 43 36 68 21 23 34 46 31 54 -3 8 0
19 7 25 19 16 37 -9 30 -40 -10 -48 -7 -79 12 -106 10 -15 17 -31 16 -36 -1
-4 4 -6 10 -5 7 2 12 -5 11 -16 -1 -13 2 -15 10 -7 8 8 7 24 -4 58 -12 38 -12
55 -3 83 7 21 8 46 3 65 l-8 30 19 -24 c11 -13 20 -29 20 -36 0 -7 3 -20 6
-28 4 -10 -4 -21 -23 -31 -27 -14 -27 -15 -5 -16 13 0 21 -4 17 -9 -3 -5 0
-13 6 -17 7 -4 10 -3 6 2 -3 5 2 18 10 29 10 13 14 14 10 4 -4 -12 1 -14 22
-11 17 2 34 -4 50 -19 l23 -22 -7 24 c-4 13 -18 34 -32 45 -19 16 -26 33 -28
64 -1 23 -6 45 -11 49 -19 13 -36 41 -26 41 6 0 31 -20 55 -45 35 -35 52 -45
77 -45 17 0 41 -5 52 -11 16 -9 19 -8 16 3 -2 7 -23 24 -46 36 -23 13 -49 37
-57 53 -9 16 -27 36 -40 45 -26 17 -33 34 -14 34 21 0 109 -43 104 -50 -3 -5
3 -7 12 -5 10 2 22 4 27 4 5 1 7 4 3 7 -9 9 19 34 37 34 19 0 32 19 14 21 -7
1 -33 3 -57 4 -29 1 -50 9 -60 21 -10 12 -31 20 -55 21 -22 2 -42 5 -45 9 -10
10 32 34 60 34 33 0 79 19 79 33 0 5 14 22 32 39 l31 29 -29 -7 c-16 -4 -42
-15 -58 -25 -19 -11 -40 -16 -62 -12 -22 4 -42 0 -58 -11 -29 -18 -46 -21 -46
-6 0 10 7 17 73 78 22 20 34 39 32 51 -2 10 3 30 10 45 8 14 10 26 5 26 -10 0
-60 -58 -60 -71 0 -5 -20 -19 -44 -31 -24 -11 -50 -33 -57 -47 l-13 -26 -4 28
c-2 16 4 39 12 52 23 35 26 65 10 104 -8 18 -11 37 -8 42 3 5 3 9 0 9 -3 0 -7
-4 -11 -9z m37 -331 c5 -13 7 -32 5 -42 -3 -9 0 -19 7 -22 6 -2 3 -5 -7 -5 -9
-1 -16 -4 -16 -8 3 -20 -2 -33 -12 -33 -8 0 -8 4 0 14 7 9 8 17 3 20 -13 8
-23 -19 -16 -39 9 -23 -43 -39 -87 -26 -35 10 -49 38 -27 52 5 3 3 9 -6 12 -8
3 -18 1 -22 -5 -5 -7 -2 -8 6 -3 9 5 11 4 6 -4 -4 -6 -12 -9 -17 -5 -5 3 -7
10 -4 15 4 5 1 9 -6 9 -8 0 -7 5 2 17 12 15 12 16 -1 8 -12 -6 -12 -5 -4 4 9
10 17 10 34 1 16 -8 25 -8 35 0 10 8 14 8 18 -2 3 -7 6 -4 6 8 1 11 -4 25 -11
32 -15 15 -48 16 -48 1 0 -5 5 -7 10 -4 6 3 10 1 10 -5 0 -7 -7 -9 -16 -6 -9
3 -18 6 -20 6 -11 0 -2 19 20 43 13 14 34 27 47 29 33 6 99 -32 111 -62z"/>
<path d="M446 550 c-19 -6 -19 -7 -1 -13 20 -8 29 -4 24 11 -2 5 -13 6 -23 2z"/>
<path d="M483 523 c-7 -3 -13 -9 -13 -15 0 -6 7 -7 16 -4 8 3 12 2 9 -4 -3 -6
-13 -10 -21 -10 -8 0 -14 -9 -13 -22 1 -16 3 -18 6 -7 2 9 14 17 26 18 45 1
57 5 57 17 0 21 -40 37 -67 27z"/>
<path d="M447 439 c7 -7 15 -10 18 -7 3 3 -2 9 -12 12 -14 6 -15 5 -6 -5z"/>
<path d="M434 408 c-4 -7 -3 -8 4 -4 7 4 12 3 12 -3 0 -6 7 -8 15 -5 8 4 12
10 9 15 -7 13 -31 11 -40 -3z"/>
<path d="M683 708 c-11 -19 -12 -38 -2 -38 5 0 9 3 10 8 0 4 2 15 4 25 4 20
-1 22 -12 5z"/>
<path d="M185 600 c3 -5 8 -10 11 -10 2 0 4 5 4 10 0 6 -5 10 -11 10 -5 0 -7
-4 -4 -10z"/>
<path d="M295 220 c-3 -5 -1 -10 4 -10 6 0 11 5 11 10 0 6 -2 10 -4 10 -3 0
-8 -4 -11 -10z"/>
<path d="M432 203 c-6 -2 -10 -9 -6 -14 8 -14 21 -11 21 6 0 8 -1 15 -1 14 -1
0 -7 -3 -14 -6z"/>
</g>
</svg>
